<svg width="48" height="48" viewBox="0 0 48 48" fill="none" xmlns="http://www.w3.org/2000/svg">
<path d="M24 4C12.95 4 4 12.95 4 24C4 35.05 12.95 44 24 44C35.05 44 44 35.05 44 24C44 12.95 35.05 4 24 4Z" fill="#0ea5e9"/>
<path d="M24 36C22.6739 36 21.4021 35.4732 20.4645 34.5355C19.5268 33.5979 19 32.3261 19 31V17C19 15.6739 19.5268 14.4021 20.4645 13.4645C21.4021 12.5268 22.6739 12 24 12C25.3261 12 26.5979 12.5268 27.5355 13.4645C28.4732 14.4021 29 15.6739 29 17V31C29 32.3261 28.4732 33.5979 27.5355 34.5355C26.5979 35.4732 25.3261 36 24 36Z" fill="white"/>
</svg>
